# xmcd
#
# Track frame offsets: 
#        150
#        17727
#        35284
#
# Disc length: 703 seconds
#
# Revision: 1
# Processed by: cddbd v1.5.2PL0 Copyright (c) Steve Scherf et al.
# Submitted via: ExactAudioCopy v0.95a5
#
DISCID=1802bd03
DTITLE=Bizarre - Fatboy
DYEAR=2007
DGENRE=Hip-Hop
TTITLE0=Fatboy (Clean)
TTITLE1=Fatboy (Dirty)
TTITLE2=Fatboy (Instrumental)
EXTD=YEAR: 1999
EXTT0=
EXTT1=
EXTT2=
PLAYORDER=
